<svg width="301" height="352" viewBox="0 0 301 352" fill="none" xmlns="http://www.w3.org/2000/svg">
<path d="M21.1281 349.654C12.6281 349.154 0.62808 337.654 2.12808 331.654C3.32808 326.854 15.6281 323.321 21.6281 322.154C23.7947 320.154 29.9281 314.654 37.1281 308.654C44.3281 302.654 42.1279 304.154 47.6279 302.154C51.9612 299.654 58.4279 299.454 61.6279 314.654C64.8279 329.854 55.6279 331.654 52.6279 333.654C50.7945 336.321 46.1278 342.354 42.1279 345.154C41.2946 345.154 37.1281 343.654 31.6279 344.654C29.6279 346.654 25.1282 349.654 21.1281 349.654ZM21.1281 349.654C29.6281 350.154 45.1279 352.154 61.6279 329.654C68.5692 324.628 67.8598 316.963 64.8135 310.154M60.1279 284.654C52.1279 286.254 54.7946 294.654 57.1279 298.654C59.6715 301.398 62.7689 305.584 64.8135 310.154M60.1279 284.654C68.1279 283.054 74.7946 293.654 77.1279 299.154L76.7153 299.522M60.1279 284.654C74.1279 260.654 80.1279 253.654 100.128 237.654L117.128 220.654L127.31 209.987M64.8135 310.154L76.7153 299.522M76.7153 299.522C87.8529 291.9 113.028 272.054 124.628 253.654C140.628 243.654 166.128 224.094 166.128 216.154C166.128 208.154 153.628 195.654 127.628 209.654M127.628 209.654L127.31 209.987M127.628 209.654C127.587 209.778 127.486 209.902 127.31 209.987M127.31 209.987C126.773 210.248 125.536 210.159 123.128 208.654C119.928 206.654 134.961 190.487 142.628 183.154C147.628 176.321 158.028 163.454 161.628 162.654C164.295 159.654 172.728 155.654 185.128 163.654C200.628 173.654 200.628 185.154 209.128 186.154C217.628 187.154 242.628 186.154 247.128 180.654C247.128 187.321 248.028 200.654 251.628 200.654C256.128 200.654 267.128 195.654 267.128 195.154C267.128 194.754 269.461 194.321 270.628 194.154C270.128 210.321 265.91 241.92 258.128 247.654C249.225 254.214 238.126 260.774 221.128 247.169M221.128 247.169C219.988 246.257 218.822 245.254 217.628 244.154C214.795 231.321 207.328 206.354 200.128 209.154C191.128 212.654 158.628 235.154 164.628 226.654C171.209 217.33 192.128 203.154 199.628 205.154C204.008 207.297 209.217 210.078 214.128 218.654C218.628 227.154 220.599 236.237 221.128 247.169ZM163.128 165.654C167.795 160.654 180.128 159.654 205.628 188.654C211.128 194.909 229.128 194.154 242.628 187.654C243.295 197.987 251.628 214.154 268.128 198.154L261.628 232.154L255.128 249.777M76.1279 134.154C61.3201 132.457 31.0092 131.417 19.9156 139.516M19.9156 139.516C19.0224 140.168 18.2538 140.879 17.6279 141.654M19.9156 139.516C19.8893 137.702 20.0432 135.901 20.3416 134.134M19.9156 139.516C19.951 141.957 20.3125 144.422 21.0871 146.858M16.6279 135.154C17.4039 135.265 18.6148 135.003 20.3416 134.134M20.3416 134.134C23.8075 132.39 29.3515 128.197 37.6279 119.654C42.2946 117.487 54.8279 113.954 67.6279 117.154M20.3416 134.134C21.6532 126.37 25.7568 119.272 29.6279 114.654M74.6279 148.654C73.6279 149.154 61.1279 159.654 47.6279 154.654C35.9424 150.326 26.8793 145.998 21.0871 146.858M21.0871 146.858C20.1877 146.992 19.3672 147.251 18.6279 147.654M21.0871 146.858C23.4156 154.184 29.4765 161.253 41.6279 166.654M225.628 251.154C225.461 259.154 226.728 275.754 233.128 278.154C239.528 280.554 251.961 273.321 255.628 269.154M255.628 269.154C256.324 269.823 257.18 270.439 258.151 270.967M255.628 269.154L258.128 270.654C258.135 270.758 258.143 270.863 258.151 270.967M258.151 270.967C263.226 273.724 271.427 274.041 276.128 266.654C276.795 262.154 277.728 252.954 276.128 252.154C274.128 251.154 267.628 249.154 266.628 245.654C265.828 242.854 266.295 239.487 266.628 238.154C269.961 236.987 277.428 236.454 280.628 243.654C283.828 250.854 283.628 260.987 283.128 265.154C287.795 277.821 292.928 304.654 276.128 310.654C270.981 308.994 260.209 298.731 258.151 270.967ZM167.628 159.154C171.011 154.481 178.694 145.011 183.177 143.302M183.177 143.302C183.331 143.243 183.481 143.194 183.628 143.154C183.483 143.202 183.332 143.252 183.177 143.302ZM183.177 143.302C179.036 144.646 171.284 146.696 170.128 145.154C168.628 143.154 168.628 129.154 172.128 129.654C175.628 130.154 179.128 132.654 180.128 131.654C181.128 130.654 150.628 98.1539 162.628 69.1539H159.627M162.127 111.654C157.127 108.321 149.627 95.1539 159.627 69.1539M159.627 69.1539C152.794 72.4873 140.727 82.1539 143.127 94.1539C137.128 96.3206 124.528 103.454 122.128 114.654C122.128 114.654 69.6279 111.654 64.6279 113.654M76.1279 132.654C82.1279 137.154 112.628 146.154 119.628 144.654C129.128 140.154 152.428 126.154 165.628 108.154M61.6279 111.654C58.6279 107.987 49.5279 102.754 47.1279 105.154C44.7279 107.554 47.1279 104.154 42.6279 107.654M22.1279 119.654C20.2945 120.321 16.6279 122.054 16.6279 123.654C16.6279 125.254 18.2945 125.987 19.1279 126.154M16.6279 129.654C14.1279 131.987 10.4279 137.054 15.6279 138.654M263.196 182.805C264.056 187.63 266.043 192.654 267.628 192.654C269.628 192.654 269.461 181.321 269.128 175.654C271.461 180.487 276.828 189.854 279.628 188.654C282.428 187.854 278.461 176.987 276.128 171.654M263.196 182.805C262.7 180.02 262.579 177.301 263.128 175.654C263.244 177.572 263.304 180.183 263.196 182.805ZM263.196 182.805C262.995 187.701 262.212 192.633 260.128 193.154C256.928 193.954 255.461 182.154 255.128 176.154C255.295 181.487 255.128 192.354 253.128 193.154C251.128 193.954 249.295 182.154 248.628 176.154L247.128 180.154M246.128 180.154C245.961 177.321 246.028 170.354 247.628 165.154C249.628 158.654 271.628 122.654 271.628 119.154C271.628 116.591 250.723 108.401 238.542 101.057M238.542 101.057C234.086 98.3702 230.798 95.7968 230.128 93.654C229.961 92.654 229.728 90.554 230.128 90.154C230.628 89.654 239.128 98.154 238.628 99.154C238.628 99.4287 238.741 100.156 238.542 101.057ZM238.542 101.057C238.018 103.434 235.32 107.017 222.628 106.654C217.461 103.321 207.328 92.9539 208.128 78.1539C208.928 63.3539 221.461 59.9873 227.628 60.1539C233.961 60.8206 248.628 65.1539 256.628 77.1539C266.295 91.6539 293.128 97.6539 299.128 117.154M273.128 154.654C282.461 143.821 300.728 121.054 299.128 116.654M273.628 154.154C273.628 154.154 274.128 167.654 276.128 172.154M237.128 61.1539C227.961 54.9873 208.028 43.7539 201.628 48.1539L199.628 50.1539M201.628 48.6539C203.294 61.4873 201.328 89.1539 180.128 97.1539C174.294 95.9873 164.128 89.1539 170.128 71.1539M192.205 37.0268C193.566 34.5125 188.93 27.6112 187.128 25.1539C188.485 24.1362 187.061 20.1695 185.784 17.4628M192.205 37.0268C192.181 37.0705 192.156 37.1129 192.128 37.1539C192.153 37.112 192.179 37.0696 192.205 37.0268ZM192.205 37.0268C194.236 33.6617 198.443 27.469 199.628 28.6539C200.828 29.8539 201.128 31.1539 201.128 31.6539L190.628 58.1539C185.295 62.8206 173.428 71.354 168.628 68.154C163.828 64.954 161.295 56.1539 160.628 52.1539C158.628 48.4873 154.628 40.6539 154.628 38.6539C154.628 36.3889 152.987 22.6317 158.628 17.4628M158.628 17.4628C159.213 16.9266 159.877 16.4829 160.628 16.1539C168.252 12.8183 181.128 11.1539 185.128 16.1539C185.331 16.5337 185.555 16.978 185.784 17.4628M158.628 17.4628C166.065 16.0658 181.908 14.1099 185.784 17.4628M158.628 17.6539C158.628 11.8206 163.528 0.553942 183.128 2.15394C189.128 1.65394 201.428 3.05395 202.628 12.6539C203.828 22.2539 201.128 40.6539 199.628 48.6539M202.628 27.1539C200.128 25.8206 195.328 24.9539 194.128 28.1539L190.128 24.1539C190.795 21.9873 190.428 17.3539 185.628 16.1539M127.628 210.654C135.461 208.154 151.928 204.654 155.128 210.654C159.128 218.154 160.628 230.154 151.628 234.154C144.428 237.354 130.628 243.821 124.628 246.654C120.461 250.654 111.528 260.854 109.128 269.654C99.9613 278.154 80.7279 294.954 77.1279 294.154M262.128 243.654C261.128 246.654 260.428 251.454 271.628 254.654C272.502 257.056 272.446 260.419 272.629 264.154C272.725 266.12 271.818 269.912 271.128 271.154M78.1279 138.154C78.1279 155.551 64.0249 169.654 46.6279 169.654C29.231 169.654 15.1279 155.551 15.1279 138.154C15.1279 120.757 29.231 106.654 46.6279 106.654C64.0249 106.654 78.1279 120.757 78.1279 138.154Z" stroke="#EBEBEB" stroke-width="3" stroke-linejoin="round"/>
</svg>
