<?xml version="1.0" encoding="UTF-8"?>
<svg id="Layer_1" data-name="Layer 1" xmlns="http://www.w3.org/2000/svg" viewBox="0 0 617.02 651.88">
  <path d="m612.24,522.58c-5.96,4.69-18.95,6.91-29.25,5.01-10.26-1.9-11.56-2.54-44.75-22.2-49.07-29.05-75.43-39.4-151.78-59.59-3.35-.88-7.53,3.41-7.53,7.73,0,5.61,4.19,9.91,12.29,12.6,9.13,3.03,11,5.02,12.05,12.83,1,7.45-2.56,16.32-7.96,19.86-3.82,2.5-4.8,2.5-17.82-.15-13-2.64-14.16-2.65-20.63-.18-19.25,7.35-21.54,25.5-4.53,35.91,11.44,7,31.08,22.26,40.03,31.09,15.84,15.64,16.35,25.86,1.8,36.4-4.81,3.49-8.08,4.62-13.31,4.62-6.02,0-7.63-.76-12.27-5.82-6.84-7.45-12.68-17.95-19.18-34.51-8.85-22.54-16.71-32.47-30.16-38.09-10-4.18-22.28-2.24-25.65,4.06-4.95,9.25,3.35,20.14,29.5,38.67,24.26,17.2,30.21,26.5,29.24,45.71-.67,13.28-4.23,19.58-15.15,26.83-9.96,6.62-17.28,8.53-30.1,7.86-9.44-.49-12.19-1.32-18.28-5.53-8.52-5.89-15.69-16.57-19.1-28.44-1.39-4.85-3.1-19.79-3.89-34.12-1.76-31.69-3.69-41.44-15.06-76.27-5.75-17.61-9.7-22.89-17.11-22.89-4.49,0-10.83,6.4-12.01,12.14-.87,4.22-3.99,36.13-3.99,40.86,0,4.31-7.6,11.95-13.49,13.58-8.49,2.34-15.35-1.1-17.4-8.74-2.19-8.13-.29-14.15,9.21-29.17,4.31-6.81,9.29-17.14,11.06-22.95,3.09-10.14,3.12-10.83.59-17.45-5.09-13.32-14.06-14.93-32.02-5.73-14.82,7.59-29.74,21.55-35.74,33.45-9.07,17.96-23.46,29.66-45.5,36.97-8.77,2.91-14.13,3.6-27.92,3.56-15.12-.04-18.07-.51-25.94-4.15-19.62-9.07-20.17-27.06-1.17-38.73,6.09-3.74,11.28-4.87,41.85-9.13,40.04-5.57,46.63-7.7,61.99-20.05,15.91-12.78,21-24.02,14.04-30.98-4.56-4.56-9.56-5.21-18.84-2.44-4.59,1.37-13.22,2.89-19.2,3.38-9.39.77-12.87.24-25.75-3.92-24.15-7.8-34.59-6.27-58.37,8.55-13.83,8.62-19.86,9.46-26.1,3.62-7.77-7.26-10.85-17.69-6.32-21.45,1.44-1.19,11.64-1.63,32.18-1.37,33.23.41,30.72.97,54.12-12.01,8.05-4.46,25.18-8.45,36.49-8.49,4.46-.02,9.25-1.05,11.2-2.41,6.16-4.31,7.91-19.04,3-25.25-.89-1.12-6.34-5.1-12.12-8.84-6.01-3.89-12.28-9.48-14.65-13.06-3.55-5.37-4.05-7.47-3.44-14.72.58-7.04,1.65-9.5,6.4-14.76,4.48-4.96,5.7-7.58,5.7-12.26,0-12.4-11.78-26.61-22.07-26.61-2.5,0-9.34,2.1-15.19,4.67-15.71,6.9-21.71,7.29-36.43,2.37-25.38-8.48-32.43-16.08-32.44-34.95,0-15.7,7.48-26.47,20.31-29.21,8.58-1.83,14.95-.5,33.86,7.07,41.13,16.46,53.88,17.48,66.08,5.28,3.14-3.14,6.58-8.63,7.65-12.21,3.15-10.51-.65-17.99-16.37-32.26-15.71-14.27-19.48-21.61-15.72-30.62,1.99-4.75,3.52-5.93,10.48-7.99,4.49-1.33,9.87-2.42,11.96-2.42,16.49,0,32.84,15.16,37.64,34.89,1.04,4.26,3.55,11.09,5.58,15.18,11.67,23.42,36.02,13.49,36.13-14.73.05-12.51-4.55-23.33-15.68-36.89-20.25-24.68-41.92-55.09-47.9-67.21-9.6-19.47-13.28-46.04-8.96-64.74,4.45-19.29,23.9-26.75,43.8-16.82,10.42,5.2,10.88,6.73,7.63,25.2-5.21,29.63-2.88,55.48,7.34,81.27,8.58,21.66,21.23,44.99,26.56,48.99,10.98,8.25,22.56,6.26,30.23-5.2,9.25-13.83,13.22-17.25,21.02-18.13,10.36-1.17,15.38,1.52,22.92,12.26,9.95,14.18,19.06,18.27,29.09,13.05,6.22-3.24,10.54-8.47,14.84-17.99,5.63-12.46,6.43-21.04,3.29-35.19-3.77-16.93-2.59-28.68,4.03-40.28,10.82-18.96,23.95-29.01,46.4-35.51,7.79-2.25,15.02-2.91,31.79-2.86,24.51.06,32.12,1.98,40.69,10.29,19.42,18.82-7.25,47.66-53.39,57.75-19.91,4.35-30.71,9.28-38.92,17.75-10.74,11.09-21.78,38.56-19.78,49.22,1.28,6.81,11.51,16.99,19.22,19.13,12.99,3.61,21.05,1.17,38.31-11.62,32.83-24.32,46.31-31.34,63.19-32.92,10.83-1.02,15.01.86,19.33,8.68,4.39,7.93,5.48,14.49,3.58,21.53-2.24,8.33-7.7,13.05-15.91,13.77-43.01,3.74-53.98,6.4-64.84,15.7-11.34,9.7-15.56,25.55-10.21,38.35,4.14,9.92,9.97,11.67,31.26,9.38,7.67-.82,12.03-.61,14.48.7,3.69,1.97,7.9,10.23,7.9,15.48,0,8.43-19.41,21.05-43.02,27.96-14.4,4.22-19.32,8.3-19.32,16.05,0,8.79,3.64,13.01,13.77,15.96,13.91,4.04,26.81,2.43,54.01-6.76,26.52-8.96,29.25-10.09,58.94-24.45,16.69-8.07,23.74-10.67,30.47-11.22,11.51-.94,19.39,1.76,23.15,7.93,5.7,9.35,3.18,15.03-9.96,22.45-12.77,7.21-22.75,9.37-50.93,11.03-40.04,2.36-75.11,10.45-104.85,24.19-14.5,6.7-17.38,9.21-17.38,15.12,0,12.33,12.7,21.76,29.47,21.89,9.08.07,11.2-.57,21.4-6.44,6.23-3.58,14.45-7.58,18.28-8.88,7.03-2.39,24.53-2.94,31.66-1,5.98,1.63,9.3,9.88,9.3,23.14,0,14.14-2.45,19.25-10.83,22.61-10.11,4.05-19.76,3.16-40.16-3.69-21.65-7.26-36.55-8.29-47.61-3.26-6.8,3.09-13.06,9.82-13.06,14.04,0,9.1,30.66,23.08,73.3,33.42,22.73,5.51,33.59,7.39,80.25,13.88,31.11,4.33,39.87,6.79,49.84,14.03,14,10.16,20.51,33.68,11.32,40.91h-.01Z" fill-rule="evenodd" stroke="#000"/>
</svg>